<svg xmlns="http://www.w3.org/2000/svg" viewBox="0 0 24 24" fill="#f7931a">
  <circle cx="12" cy="12" r="12" fill="#f7931a"/>
  <path d="M17.23 10.45c.39-2.62-.68-4.03-1.84-4.96l.37-1.51-.92-.23-.36 1.47c-.24-.06-.49-.12-.74-.17l.37-1.48-.92-.23-.37 1.51c-.20-.05-.40-.09-.59-.14l-.01.00-.92-.23-.37 1.51c-.20-.05-.40-.09-.59-.14l.00-.01v-.01l-1.27-.32-.24.98s.68.16.67.17c.37.09.44.34.43.53l-1.07 4.31c-.03.08-.11.20-.29.15.01.01-.67-.17-.67-.17l-.46 1.05 1.20.30c.22.06.44.12.65.18l-.37 1.53.92.23.37-1.51c.25.07.50.13.74.19l-.37 1.50.92.23.37-1.53c1.54.29 2.70.17 3.19-1.22.39-1.12-.02-1.77-.83-2.19.59-.14 1.03-.53 1.15-1.35zm-2.06 2.89c-.28 1.13-2.17.52-2.78.37l.50-1.99c.61.15 2.58.46 2.28 1.62zm.28-2.91c-.25 1.03-1.82.51-2.33.38l.45-1.81c.51.13 2.16.37 1.88 1.43z" fill="white"/>
</svg>